<?xml version="1.0" standalone="no"?>
<!DOCTYPE svg PUBLIC "-//W3C//DTD SVG 20010904//EN"
 "http://www.w3.org/TR/2001/REC-SVG-20010904/DTD/svg10.dtd">
<svg version="1.0" xmlns="http://www.w3.org/2000/svg"
 width="300.000000pt" height="300.000000pt" viewBox="0 0 300.000000 300.000000"
 preserveAspectRatio="xMidYMid meet">
<metadata>
Created by potrace 1.10, written by Peter Selinger 2001-2011
</metadata>
<g transform="translate(0.000000,300.000000) scale(0.100000,-0.100000)"
fill="#000000" stroke="none">
<path d="M2 1498 l3 -1503 2 1497 3 1498 1498 3 1497 2 -1502 3 -1503 2 2
-1502z"/>
<path d="M2995 1500 c0 -817 1 -1151 2 -743 2 409 2 1077 0 1485 -1 409 -2 75
-2 -742z"/>
<path d="M1627 2542 l-39 -77 194 -340 c107 -187 237 -415 289 -507 l95 -166
45 75 46 76 -153 266 c-85 146 -216 375 -291 508 -76 133 -140 242 -143 242
-3 0 -22 -35 -43 -77z m126 -138 c38 -65 79 -137 92 -159 27 -48 144 -252 247
-430 123 -212 122 -210 101 -245 -10 -17 -21 -29 -26 -27 -10 3 -72 110 -347
592 -208 364 -193 332 -172 367 9 15 21 27 26 25 6 -2 41 -57 79 -123z"/>
<path d="M1040 1524 c-283 -488 -516 -889 -518 -893 -1 -3 459 -6 1023 -6 564
0 1024 3 1023 6 -12 26 -1004 1778 -1008 1779 -3 0 -237 -399 -520 -886z m618
641 c44 -77 139 -246 212 -375 73 -129 161 -284 195 -345 34 -60 122 -216 195
-345 73 -129 154 -274 181 -321 27 -48 49 -91 49 -97 0 -6 -8 -13 -18 -16 -10
-3 -433 -5 -941 -5 -765 2 -924 4 -928 15 -3 8 35 83 84 166 49 84 143 245
208 358 206 356 287 495 295 505 4 6 22 37 40 70 18 33 63 112 100 175 218
371 224 381 236 368 7 -7 48 -76 92 -153z"/>
<path d="M1508 2083 c-24 -26 -85 -127 -228 -378 -31 -55 -121 -212 -200 -350
-288 -499 -310 -539 -310 -552 0 -7 9 -22 20 -33 20 -20 33 -20 762 -20 l742
0 22 21 c22 20 22 24 9 55 -12 29 -85 157 -230 399 -23 39 -61 104 -85 145
-24 41 -107 183 -185 315 -78 132 -157 267 -175 299 -38 67 -86 126 -104 126
-7 0 -24 -12 -38 -27z m421 -647 c209 -357 381 -649 381 -650 0 -1 -342 -1
-760 -1 -757 0 -759 0 -746 20 21 32 701 1216 720 1253 10 19 19 32 21 30 1
-1 174 -295 384 -652z"/>
<path d="M1525 1960 c-13 -25 -558 -971 -642 -1112 -2 -5 295 -8 661 -8 l666
0 -29 48 c-16 26 -162 279 -325 562 -162 283 -299 522 -304 530 -7 12 -13 7
-27 -20z m81 -151 c28 -46 64 -109 81 -139 17 -30 46 -82 65 -115 64 -111 191
-329 226 -390 86 -147 151 -269 146 -276 -3 -5 -266 -9 -584 -9 -653 0 -606
-7 -550 77 17 24 30 46 30 49 0 2 44 80 97 172 53 92 142 246 198 342 56 96
128 221 161 277 32 57 64 101 69 100 6 -2 33 -41 61 -88z"/>
<path d="M1508 1693 c-14 -16 -70 -104 -123 -198 -54 -93 -136 -235 -182 -315
-90 -155 -98 -185 -53 -207 19 -10 119 -13 401 -13 364 0 376 1 397 20 12 12
22 25 22 31 0 15 -30 72 -177 327 -75 130 -148 257 -161 282 -29 52 -71 100
-87 100 -6 0 -23 -12 -37 -27z m228 -330 c103 -181 194 -336 202 -345 14 -17
-5 -18 -393 -18 l-407 0 14 23 c11 16 245 417 385 660 2 4 6 7 8 7 2 0 87
-147 191 -327z"/>
<path d="M876 1673 c-4 -10 -141 -250 -305 -533 -164 -283 -298 -515 -297
-516 0 0 42 2 91 4 l90 4 267 461 266 460 -45 69 c-25 37 -49 68 -54 68 -4 0
-10 -8 -13 -17z m49 -94 l16 -30 -96 -167 c-104 -181 -105 -181 -152 -259 -18
-30 -33 -56 -33 -58 0 -3 -50 -90 -110 -194 -88 -151 -117 -191 -140 -201 -24
-10 -33 -10 -45 0 -16 14 -22 2 102 215 38 66 100 174 138 240 38 66 78 136
90 155 43 69 93 156 110 190 31 61 84 140 95 140 5 0 17 -14 25 -31z"/>
<path d="M1582 538 c14 -24 39 -69 57 -100 l32 -58 529 0 528 0 -57 100 -56
100 -528 0 -529 0 24 -42z m1024 -23 c29 -37 49 -83 40 -93 -9 -8 -875 -13
-923 -5 -26 4 -38 15 -63 59 -16 29 -30 56 -30 58 0 9 75 11 509 11 l444 -1
23 -29z"/>
<path d="M768 3 c409 -2 1075 -2 1480 0 405 1 71 2 -743 2 -814 0 -1146 -1
-737 -2z"/>
</g>
</svg>
